<svg height="480pt" viewBox="0 -1 480 480" width="480pt" xmlns="http://www.w3.org/2000/svg"><path d="m140.121094 388.792969 262.957031-262.964844-33.941406-33.9375-155.480469 155.480469 155.480469-155.480469-33.945313-33.945313-262.960937 262.960938zm0 0" fill="#9bc9ff"/><g fill="#1e81ce"><path d="m453.992188 52.289062-45.257813-45.261718c-9.371094-9.371094-24.5625-9.371094-33.933594 0l-45.265625 45.261718-262.960937 262.960938c-.078125.082031-.101563.191406-.175781.273438-.558594.605468-1.015626 1.296874-1.359376 2.046874-.09375.175782-.179687.351563-.253906.535157-.042968.097656-.105468.175781-.136718.273437l-33.9375 101.847656c-.933594 2.863282-.179688 6.011719 1.949218 8.140626 2.128906 2.128906 5.277344 2.882812 8.140625 1.949218l101.816407-33.9375c.09375 0 .175781-.097656.269531-.136718.183593-.074219.363281-.160157.539062-.253907.75-.34375 1.441407-.800781 2.046875-1.363281.078125-.070312.191406-.09375.269532-.175781l262.960937-262.957031 45.257813-45.265626c9.378906-9.363281 9.390624-24.554687.03125-33.9375zm-403.046876 357.792969 24.796876-74.359375 49.601562 49.601563zm89.175782-32.597656-56.578125-56.578125 251.65625-251.648438 22.632812 22.632813-149.832031 149.824219c-2.078125 2.007812-2.914062 4.984375-2.179688 7.78125.730469 2.796875 2.914063 4.980468 5.710938 5.710937 2.796875.734375 5.773438-.101562 7.78125-2.179687l149.824219-149.824219 22.632812 22.625zm302.558594-302.570313-39.601563 39.609376-56.574219-56.578126 39.609375-39.597656c3.121094-3.125 8.1875-3.125 11.3125 0l45.246094 45.253906c3.125 3.125 3.128906 8.1875.007813 11.3125zm0 0"/><path d="m472 477.027344h-464c-4.417969 0-8-3.582032-8-8 0-4.417969 3.582031-8 8-8h464c4.417969 0 8 3.582031 8 8 0 4.417968-3.582031 8-8 8zm0 0"/><path d="m472 429.027344h-240c-4.417969 0-8-3.582032-8-8 0-4.417969 3.582031-8 8-8h240c4.417969 0 8 3.582031 8 8 0 4.417968-3.582031 8-8 8zm0 0"/><path d="m472 373.027344h-208c-4.417969 0-8-3.582032-8-8 0-4.417969 3.582031-8 8-8h208c4.417969 0 8 3.582031 8 8 0 4.417968-3.582031 8-8 8zm0 0"/></g></svg>