<svg height="512" viewBox="0 0 60 60" width="512" xmlns="http://www.w3.org/2000/svg"><g id="Page-1" fill="none" fill-rule="evenodd"><g id="002---Phone" fill-rule="nonzero" transform="translate(-1)"><path id="Shape" d="m28.65 1.093c-10.11566.82145961-19.06587404 6.87126809-23.59906305 15.9515528-4.53318901 9.0802848-3.98968349 19.8696831 1.43306305 28.4484472.35359156.5457564.42282019 1.2283655.186 1.834l-3.889 9.72c-.14292161.3583176-.06699303.7668901.19511887 1.0499367.26211189.2830467.66365823.3900848 1.03188113.2750633l10.935-3.417c.5389891-.1642808 1.1221419-.095376 1.608.19 10.8140812 6.2114405 24.3883642 4.8136145 33.7096691-3.4712886 9.321305-8.2849031 12.302078-21.6014368 7.4022968-33.0695878-4.8997812-11.46815111-16.5827855-18.51956851-29.0129659-17.5111236z" fill="#e8edfc"/><path id="Shape" d="m29.511 1.049c15.3364573.81301477 27.3797568 13.441805 27.4643703 28.7995638.0846136 15.3577588-11.8188024 28.1184835-27.1453703 29.1004362-.066 0-.129 0-.195 0 1.0642243.0574845 2.1307757.0574845 3.195 0 15.8292616-1.1150467 27.8228373-14.7454791 26.9146994-30.587958-.908138-15.8424789-14.3807077-28.01311619-30.2336994-27.312042z" fill="#cad9fc"/><path id="Shape" d="m26.828 34.172c-2.3544036-2.2329196-3.9548584-5.1437272-4.579-8.328-.1027028-.6322403.1071031-1.2750737.563-1.725l2.3-2.3c.6630266-.6577358.7825766-1.6867786.288-2.479l-4.055-6.488c-.5467343-.8738414-1.6680601-1.1890248-2.59-.728l-6.521 3.26c-.7546097.3728118-1.1930666 1.180053-1.095 2.016.486 4.01 2.343 12.81 11 21.466s17.456 10.513 21.466 11c.8340954.0966321 1.6390926-.340675 2.012-1.093l3.26-6.521c.4610248-.9219399.1458414-2.0432657-.728-2.59l-6.489-4.062c-.789976-.4939629-1.8163934-.3770136-2.475.282l-2.3 2.3c-.4499263.4558969-1.0927597.6657028-1.725.563-3.1849737-.6217106-6.0971977-2.2200784-8.332-4.573z" fill="#a4c2f7"/><path id="Shape" d="m48.148 39.657-6.488-4.057c-.789976-.4939629-1.8163934-.3770136-2.475.282l-.029.028 5.992 3.745c.8738414.5467343 1.1890248 1.6680601.728 2.59l-3.26 6.521c-.1752278.3452165-.4468824.6321561-.782.826.661.119 1.256.2 1.77.267.8340954.0966321 1.6390926-.340675 2.012-1.093l3.26-6.521c.4597947-.9214406.1447514-2.0414023-.728-2.588z" fill="#7facfa"/><path id="Shape" d="m6.67 47.325-3.889 9.722c-.14292161.3583176-.06699303.7668901.19511887 1.0499367.26211189.2830467.66365823.3900848 1.03188113.2750633l1.792-.559c-.10963497-.2424528-.11541519-.5191807-.016-.766l3.886-9.722c.23682019-.6056345.16759156-1.2882436-.186-1.834-5.51522649-8.7213078-5.98074142-19.7163522-1.222427-28.8726275 4.7583144-9.15627523 14.0236342-15.09441937 24.330427-15.5933725-10.8402843-.5926446-21.1042998 4.91682423-26.6011662 14.2788459-5.49686643 9.3620217-5.30657907 21.0096846.4931662 30.1871541.35359156.5457564.42282019 1.2283655.186 1.834z" fill="#fff"/><path id="Shape" d="m2.947 19.392 1.869.712c-.89032251 2.4163462-1.46702813 4.9369128-1.716 7.5l-1.993-.165c.2644518-2.7503441.88289736-5.4550351 1.84-8.047z" fill="#fff"/><g fill="#428dff"><path id="Shape" d="m25.823 22.522c.993086-.9850934 1.168919-2.5276854.423-3.711l-4.055-6.488c-.8152054-1.3171586-2.5022698-1.792229-3.885-1.094l-6.521 3.26c-1.1288156.5641534-1.783903 1.7744064-1.639 3.028.678 5.589 3.185 13.953 11.285 22.052s16.463 10.607 22.052 11.285c1.2544737.1494883 2.4672044-.5069402 3.028-1.639l3.26-6.521c.697214-1.3828284.222344-3.0691813-1.094-3.885l-6.488-4.055c-1.1829155-.7461533-2.7254086-.5702842-3.71.423l-2.3 2.3c-.2220421.2263975-.5396638.331775-.853.283-2.9798321-.5874498-5.7018471-2.090746-7.786-4.3-2.2094881-2.0843774-3.7128089-4.8067864-4.3-7.787-.0480992-.3129792.0572018-.6299984.283-.852zm-4.56 3.488c.6575463 3.3896211 2.3556963 6.4898459 4.858 8.869 2.3791541 2.5023037 5.4793789 4.2004537 8.869 4.858.9517232.1548338 1.9197199-.1586482 2.6-.842l2.3-2.3c.329225-.3292493.8421238-.3877123 1.237-.141l6.488 4.055c.4369207.2733671.5945124.83403.364 1.295l-3.26 6.52c-.1863235.3734416-.5849725.5919013-1 .548-5.277-.639-13.183-3.017-20.879-10.713s-10.074-15.6-10.713-20.879c-.0463096-.415507.1728582-.8154483.548-1l6.52-3.26c.1393636-.0699492.2930676-.106578.449-.107.344276.0009034.6638786.1788382.846.471l4.06 6.486c.2467123.3948762.1882493.907775-.141 1.237l-2.3 2.3c-.6864703.6797274-1.0016773 1.6495665-.846 2.603z"/><path id="Shape" d="m2.76 24.569c-.55228475.0027614-1.00223858-.4427153-1.005-.995s.44271525-1.0022386.995-1.005h.01c.55228475 0 1 .4477153 1 1s-.44771525 1-1 1z"/><path id="Shape" d="m5.741 46.953-3.888 9.722c-.28695434.716856-.13561666 1.5348633.38881351 2.101607.52443017.5667436 1.32826159.7809728 2.06518649.550393l10.935-3.417c.2718657-.0841601.5667655-.0477527.81.1 4.5490947 2.6204898 9.7081252 3.9966451 14.958 3.99.626 0 1.253-.0193333 1.881-.058 10.7585413-.6826024 20.3236728-7.085081 25.0556767-16.7711687 4.7320039-9.6860878 3.903242-21.166359-2.1709258-30.0723481-6.0741678-8.90598911-16.4597193-13.86822592-27.2047509-12.9984832-2.8115834.25317368-5.5765402.88210801-8.221 1.87-2.6367342 1.0077617-5.115302 2.3884856-7.36 4.1-2.2647955 1.68339603-4.26988712 3.69050924-5.951 5.957-1.69926745 2.2535104-3.07648976 4.7326451-4.092 7.366-.09773823.2526759-.08810544.5342983.02666952.7797053.11477497.245407.3247462.4333327.58133048.5202947.51153691.1759365 1.07024467-.0868023 1.261-.593.94828964-2.4574452 2.23395361-4.7709672 3.82-6.874 1.5711482-2.1171607 3.4459922-3.99099389 5.564-5.561 2.0945951-1.59827014 4.4078772-2.88743065 6.869-3.828 2.4641357-.91972129 5.0397717-1.50721784 7.659-1.747 12.001827-.97522282 23.2831308 5.83209213 28.0150846 16.9047397 4.7319538 11.0726475 1.8547388 23.9306795-7.1450449 31.9306047-8.9997837 7.9999253-22.1064485 9.3499953-32.5480397 3.3526556-.7282489-.422709-1.5995203-.5234214-2.405-.278l-10.935 3.418 3.89-9.718c.35424356-.9037174.25423139-1.9224288-.269-2.74-3.27896731-5.1648086-4.76587812-11.2656764-4.231-17.36.04583963-.5506279-.3633721-1.0341604-.914-1.08s-1.03416037.3633721-1.08.914c-.57069115 6.5270287 1.02260645 13.0604625 4.534 18.592.18233963.2742156.22000879.6199514.101.927z"/><path id="Shape" d="m48.625 13.71c.2411169.2682149.6079806.3858135.9600945.3077595.3521139-.0780541.6349169-.3396662.7401049-.6846475s.0164618-.719876-.2321994-.981112c-3.9629797-4.26741429-9.2363471-7.09078611-14.985-8.023-.5265973-.05320384-1.0034518.3131341-1.087755.8356552-.0843033.5225211.2531451 1.0202382.769755 1.1353448 5.3078805.861265 10.1766395 3.46896319 13.835 7.41z"/><circle id="Oval" cx="31" cy="5" r="1"/></g></g></g></svg>